<svg xmlns="http://www.w3.org/2000/svg" version="1.1" xmlns:xlink="http://www.w3.org/1999/xlink" xmlns:svgjs="http://svgjs.com/svgjs" width="1440" height="560" preserveAspectRatio="none" viewBox="0 0 1440 560"><g mask="url(&quot;#SvgjsMask1024&quot;)" fill="none"><rect width="1440" height="560" x="0" y="0" fill="rgba(241, 242, 247, 1)"></rect><path d="M0,421.036C76.876,410.912,133.028,350.398,197.578,307.437C260.95,265.259,336.843,237.106,375.177,171.338C415.142,102.772,415.928,20.097,411.236,-59.127C406.206,-144.058,409.979,-243.425,347.213,-300.862C284.452,-358.293,180.427,-313.333,100.779,-343.222C11.22,-376.83,-50.386,-511.127,-142.277,-484.552C-234.023,-458.019,-219.944,-315.71,-271.763,-235.484C-313.777,-170.438,-387.73,-131.758,-416.571,-59.894C-450.356,24.289,-484.307,121.48,-448.464,204.807C-412.546,288.308,-315.99,324.807,-234.112,364.285C-160.288,399.88,-81.255,431.736,0,421.036" fill="#e2e4ee"></path><path d="M1440 981.7629999999999C1521.1 989.201 1601.59 962.0260000000001 1671.199 919.7529999999999 1741.974 876.7719999999999 1806.479 818.239 1836.404 741.032 1865.606 665.69 1837.507 584.213 1832.511 503.565 1827.005 414.692 1862.85 311.405 1805.564 243.23700000000002 1748.319 175.118 1642.608 179.14 1553.913 172.04700000000003 1479.122 166.06599999999997 1408.676 187.18 1335.964 205.685 1260.317 224.937 1176.637 229.04500000000002 1119.784 282.531 1060.7939999999999 338.028 1038.752 420.596 1023.066 500.054 1006.71 582.904 986.755 674.446 1027.85 748.222 1068.406 821.0319999999999 1162.028 838.616 1234.539 879.704 1302.4470000000001 918.183 1362.274 974.634 1440 981.7629999999999" fill="#ffffff"></path></g><defs><mask id="SvgjsMask1024"><rect width="1440" height="560" fill="#ffffff"></rect></mask></defs></svg>